<svg width="139" height="20" viewBox="0 0 139 20" fill="none" xmlns="http://www.w3.org/2000/svg">
<g clip-path="url(#clip0_102_9)">
<path d="M38.175 15.847C41.027 15.847 43.327 14.225 44.127 11.631H40.23C39.854 12.296 39.09 12.697 38.175 12.697C36.938 12.697 36.11 12.023 35.855 10.719H44.295C44.346 10.367 44.376 10.025 44.376 9.682C44.376 6.347 41.839 3.732 38.175 3.732C34.607 3.732 32 6.296 32 9.781C32 13.254 34.628 15.847 38.175 15.847ZM40.519 8.55H35.923C36.24 7.421 37.033 6.801 38.175 6.801C39.356 6.801 40.175 7.413 40.519 8.55ZM51.465 15.846C52.785 15.846 53.965 15.412 54.895 14.658L55.231 15.462H58.258V4.093H55.339L54.939 4.973C53.999 4.198 52.804 3.751 51.465 3.751C47.989 3.751 45.504 6.256 45.504 9.777C45.504 13.31 47.989 15.847 51.465 15.847V15.846ZM51.989 12.379C50.522 12.379 49.444 11.271 49.444 9.786C49.444 8.311 50.513 7.203 51.989 7.203C53.455 7.203 54.533 8.311 54.533 9.786C54.533 11.271 53.455 12.379 51.989 12.379ZM65.112 15.846C68.132 15.846 70.137 14.292 70.137 11.916C70.137 9.033 67.75 8.66 65.954 8.341C64.874 8.148 64.004 7.997 64.004 7.351C64.004 6.824 64.426 6.513 65.054 6.513C65.764 6.513 66.251 6.85 66.251 7.576H69.918C69.874 5.273 67.998 3.733 65.102 3.733C62.19 3.733 60.248 5.203 60.248 7.483C60.248 10.24 62.585 10.772 64.348 11.057C65.44 11.238 66.3 11.425 66.3 12.081C66.3 12.668 65.757 12.961 65.184 12.961C64.442 12.961 63.864 12.578 63.864 11.747H60.094C60.13 14.21 62.013 15.847 65.112 15.847V15.846ZM73.212 19.704C76.148 19.704 77.556 18.447 79.089 14.968L83.853 4.105H79.647L77.398 10.368L74.986 4.105H70.731L75.429 14.535C74.899 15.949 74.446 16.339 72.949 16.339H71.871V19.704H73.212ZM91.716 15.846C95.216 15.846 97.689 13.331 97.689 9.798C97.689 6.265 95.217 3.75 91.716 3.75C90.7196 3.74223 89.7409 4.01383 88.891 4.534V0H85.021V15.474H87.918L88.288 14.63C89.211 15.401 90.39 15.846 91.716 15.846ZM91.193 12.379C89.726 12.379 88.648 11.271 88.648 9.799C88.648 8.313 89.726 7.205 91.193 7.205C92.659 7.205 93.737 8.313 93.737 9.798C93.737 11.271 92.65 12.379 91.193 12.379ZM104.791 15.846C106.111 15.846 107.291 15.412 108.221 14.658L108.557 15.462H111.584V4.093H108.666L108.265 4.973C107.326 4.198 106.13 3.751 104.791 3.751C101.315 3.751 98.831 6.256 98.831 9.777C98.831 13.31 101.315 15.847 104.791 15.847V15.846ZM105.315 12.379C103.848 12.379 102.77 11.271 102.77 9.786C102.77 8.311 103.84 7.203 105.315 7.203C106.782 7.203 107.86 8.311 107.86 9.786C107.86 11.271 106.782 12.379 105.315 12.379ZM117.968 15.474V9.403C117.968 7.956 118.67 7.103 119.891 7.103C120.877 7.103 121.374 7.76 121.374 9.083V15.473H125.289V8.543C125.289 5.646 123.556 3.77 120.916 3.77C119.446 3.77 118.183 4.335 117.336 5.278L116.799 4.106H114.052V15.475H117.968V15.474ZM131.716 15.474V10.666L134.564 15.474H139.18L135.278 9.524L138.821 4.105H134.424L131.716 8.559V0H127.8V15.474H131.716Z" fill="white"/>
<path fill-rule="evenodd" clip-rule="evenodd" d="M10.802 0L0 19.704H5.986L16.789 0H10.802Z" fill="url(#paint0_linear_102_9)"/>
<path opacity="0.5" fill-rule="evenodd" clip-rule="evenodd" d="M18.171 0L7.368 19.704H13.354L24.157 0H18.171Z" fill="url(#paint1_linear_102_9)"/>
<path opacity="0.15" fill-rule="evenodd" clip-rule="evenodd" d="M25.539 0L14.737 19.704H20.723L31.525 0H25.539Z" fill="url(#paint2_linear_102_9)"/>
</g>
<defs>
<linearGradient id="paint0_linear_102_9" x1="1212.08" y1="-0.000114289" x2="48.4379" y2="1812.87" gradientUnits="userSpaceOnUse">
<stop stop-color="#33D35E"/>
<stop offset="1" stop-color="#2AB6D9"/>
</linearGradient>
<linearGradient id="paint1_linear_102_9" x1="1219.45" y1="-0.000114289" x2="55.8059" y2="1812.87" gradientUnits="userSpaceOnUse">
<stop stop-color="#33D35E"/>
<stop offset="1" stop-color="#2AB6D9"/>
</linearGradient>
<linearGradient id="paint2_linear_102_9" x1="1226.75" y1="-0.000114289" x2="63.0737" y2="1812.81" gradientUnits="userSpaceOnUse">
<stop stop-color="#33D35E"/>
<stop offset="1" stop-color="#2AB6D9"/>
</linearGradient>
<clipPath id="clip0_102_9">
<rect width="139" height="20" fill="white"/>
</clipPath>
</defs>
</svg>
